<svg width="24" height="25" viewBox="0 0 24 25" fill="none" xmlns="http://www.w3.org/2000/svg">
<path opacity="0.6" d="M14 16.5009C14 18.2709 13.23 19.8709 12 20.9609C10.94 21.9209 9.54 22.5009 8 22.5009C4.69 22.5009 2 19.8109 2 16.5009C2 13.7409 3.88 11.4009 6.42 10.7109C7.11 12.4509 8.59 13.7909 10.42 14.2909C10.92 14.4309 11.45 14.5009 12 14.5009C12.55 14.5009 13.08 14.4309 13.58 14.2909C13.85 14.9709 14 15.7209 14 16.5009Z" fill="white"/>
<path d="M18 8.5C18 9.28 17.85 10.03 17.58 10.71C16.89 12.45 15.41 13.79 13.58 14.29C13.08 14.43 12.55 14.5 12 14.5C11.45 14.5 10.92 14.43 10.42 14.29C8.59 13.79 7.11 12.45 6.42 10.71C6.15 10.03 6 9.28 6 8.5C6 5.19 8.69 2.5 12 2.5C15.31 2.5 18 5.19 18 8.5Z" fill="white"/>
<path opacity="0.4" d="M22 16.5009C22 19.8109 19.31 22.5009 16 22.5009C14.46 22.5009 13.06 21.9209 12 20.9609C13.23 19.8709 14 18.2709 14 16.5009C14 15.7209 13.85 14.9709 13.58 14.2909C15.41 13.7909 16.89 12.4509 17.58 10.7109C20.12 11.4009 22 13.7409 22 16.5009Z" fill="white"/>
</svg>
