<svg width="17" height="20" viewBox="0 0 17 20" fill="none" xmlns="http://www.w3.org/2000/svg">
<path d="M10.6328 5.63281C11.4368 5.63281 12.0882 6.24954 12.0882 7.01085V18.232C12.0882 18.9933 11.4368 19.61 10.6328 19.61H2.10782C1.30373 19.61 0.652344 18.9933 0.652344 18.232V7.01085C0.652344 6.24954 1.30373 5.63281 2.10782 5.63281H10.6328Z" fill="white"/>
<path d="M13.8958 0.753906C15.3672 0.753906 16.5601 1.92163 16.5601 3.36209V14.798C16.5601 15.4626 16.0093 16.0018 15.3304 16.0018C14.6515 16.0018 14.1007 15.4626 14.1007 14.798V3.36209C14.1007 3.25159 14.0087 3.16146 13.8958 3.16146H5.08318C4.4043 3.16146 3.85352 2.62227 3.85352 1.95768C3.85352 1.2931 4.4043 0.753906 5.08318 0.753906H13.8958Z" fill="white"/>
</svg>
