<svg width="139" height="26" viewBox="0 0 139 26" fill="none" xmlns="http://www.w3.org/2000/svg">
<g clip-path="url(#clip0_238_3367)">
<path d="M15.5741 0.257812V10.9914H8.85059V0.257812H15.5741Z" fill="white"/>
<path d="M22.0243 5.30273V12.392H0V5.30273H22.0243Z" fill="white"/>
<path d="M12.351 10.666C18.0351 13.0704 22.0321 18.6938 22.0321 25.2338H14.9298C14.9298 21.7936 12.9233 18.8116 10.0176 17.3912" fill="white"/>
<path d="M15.8433 9.42188H8.74087C8.74087 14.2323 4.81936 18.1466 0 18.1466V25.236C8.73459 25.236 15.8417 18.1434 15.8417 9.42343L15.8433 9.42188Z" fill="white"/>
<path d="M121.914 16.6303L133.636 12.829C132.39 9.89254 128.961 8.58832 126.048 9.53316C123.264 10.4356 121.182 13.4913 121.914 16.6303ZM137.779 14.3279L122.75 19.2026C124.499 21.9052 127.507 23.0259 130.29 22.1235C132.417 21.4329 134.059 19.6923 134.489 17.4558L137.895 16.351C137.68 20.4723 135.049 23.9551 131.153 25.2185C126.046 26.8742 120.476 23.7777 118.928 19.0205C117.097 13.3956 120.142 8.07197 124.955 6.51191C130.291 4.78078 135.67 7.51481 137.332 12.625C137.51 13.1712 137.678 13.686 137.779 14.3279Z" fill="white"/>
<path d="M116.25 25.2673H112.729V0.257812H116.25V25.2673Z" fill="white"/>
<path d="M107.073 19.0842H111C109.51 23.3092 105.922 25.7419 101.756 25.7419C96.3723 25.7419 92.1396 21.4163 92.1396 16.0755C92.1396 10.4316 96.2373 6.03711 101.722 6.03711C105.988 6.03711 109.882 8.70677 111 12.7623H107.107C106.057 10.565 104.363 9.24668 101.824 9.24668C98.1335 9.24668 95.6617 12.0513 95.6617 15.8715C95.6617 19.6914 98.201 22.5291 101.756 22.5291C104.16 22.5291 106.09 21.2453 107.073 19.0825V19.0842Z" fill="white"/>
<path d="M86.5211 25.2694H82.999V6.54562H86.2837V8.11038C86.2837 8.13706 86.3041 8.15746 86.3309 8.15746C86.3434 8.15746 86.356 8.15275 86.3654 8.14178C87.9156 6.50167 89.9442 6.03711 92.4601 6.03711V9.65317C89.0715 9.65317 86.5195 10.1742 86.5195 14.7571V25.2679L86.5211 25.2694Z" fill="white"/>
<path d="M65.4283 16.6522L76.9571 12.9137C75.7165 9.97568 72.3311 8.65733 69.4663 9.58647C66.7288 10.4748 64.6911 13.5149 65.4283 16.6522ZM81.0468 14.4299L66.2664 19.223C68.0024 21.9288 70.9695 23.0636 73.707 22.1751C75.7997 21.4956 77.4084 19.766 77.822 17.5359L81.1712 16.4499C80.9793 20.5633 78.4037 24.0272 74.5717 25.2701C69.5481 26.8993 64.0464 23.7792 62.499 19.022C60.6671 13.3971 63.6422 8.09702 68.3767 6.56209C73.6252 4.85922 78.9367 7.61521 80.6003 12.7254C80.7779 13.2716 80.9463 13.7864 81.0484 14.4283L81.0468 14.4299Z" fill="white"/>
<path d="M33.105 25.3017H29.4854L35.4886 9.45319C36.2372 7.2779 37.4746 5.92659 40.0613 5.92659C42.9371 5.92659 44.3727 7.59178 44.3727 10.07V21.3231C44.3727 21.9713 44.7768 22.392 45.3475 22.392C45.8664 22.392 46.269 22.0827 46.4373 21.6009L51.1512 9.44847C51.8997 7.27946 53.131 5.92188 55.7189 5.92188C58.5948 5.92188 60.0305 7.58707 60.0305 10.0653V25.2923H56.6106V10.2379C56.6106 9.55992 56.2064 9.13772 55.631 9.13772C55.1435 9.13772 54.7409 9.47673 54.5679 9.95542L49.854 22.1079C49.1055 24.2768 47.843 25.6344 45.2548 25.6344C42.4104 25.6344 40.9747 23.9692 40.9747 21.4596V10.2379C40.9747 9.55992 40.5455 9.13772 39.9685 9.13772C39.4495 9.13772 39.1036 9.47673 38.9054 9.95542L33.1018 25.2954L33.1066 25.3001L33.105 25.3017Z" fill="white"/>
</g>
<defs>
<clipPath id="clip0_238_3367">
<rect width="139" height="25.4833" fill="white" transform="translate(0 0.257812)"/>
</clipPath>
</defs>
</svg>
