<svg width="24" height="25" viewBox="0 0 24 25" fill="none" xmlns="http://www.w3.org/2000/svg">
<path opacity="0.4" d="M21.0409 7.69L12.0009 12.92L2.96094 7.69C3.36094 6.95 3.94094 6.3 4.59094 5.94L9.93094 2.98C11.0709 2.34 12.9309 2.34 14.0709 2.98L19.4109 5.94C20.0609 6.3 20.6409 6.95 21.0409 7.69Z" fill="white"/>
<path opacity="0.6" d="M12.0006 12.9195V22.4995C11.2506 22.4995 10.5006 22.3395 9.93063 22.0195L4.59063 19.0595C3.38063 18.3895 2.39062 16.7095 2.39062 15.3295V9.66945C2.39062 9.02945 2.61062 8.32945 2.96063 7.68945L12.0006 12.9195Z" fill="white"/>
<path d="M21.61 9.66945V15.3295C21.61 16.7095 20.62 18.3895 19.41 19.0595L14.07 22.0195C13.5 22.3395 12.75 22.4995 12 22.4995V12.9195L21.04 7.68945C21.39 8.32945 21.61 9.02945 21.61 9.66945Z" fill="white"/>
</svg>
