<svg width="15" height="14" viewBox="0 0 15 14" fill="none" xmlns="http://www.w3.org/2000/svg">
<path d="M6.5678 0.511355C6.81635 -0.170452 7.78133 -0.170452 8.02986 0.511355L9.19537 3.71007C9.43175 4.35724 9.9416 4.86707 10.5888 5.10345L13.7875 6.26897C14.4693 6.51752 14.4693 7.4825 13.7875 7.73103L10.5888 8.89654C9.94158 9.13293 9.43175 9.64277 9.19537 10.2899L8.02986 13.4886C7.78131 14.1705 6.81633 14.1705 6.5678 13.4886L5.40228 10.2899C5.1659 9.64276 4.65606 9.13293 4.00889 8.89654L0.810183 7.73103C0.128376 7.48248 0.128376 6.5175 0.810183 6.26897L4.00889 5.10345C4.65607 4.86707 5.1659 4.35723 5.40228 3.71007L6.5678 0.511355Z" fill="white"/>
</svg>
