<svg width="24" height="25" viewBox="0 0 24 25" fill="none" xmlns="http://www.w3.org/2000/svg">
<path d="M12 3.08984V14.1098L2.65 20.6498C1.8 19.6398 1.75 18.1098 2.7 16.3998L5.82 10.7898L8.76 5.49984C9.65 3.89984 10.82 3.08984 12 3.08984Z" fill="white"/>
<path opacity="0.6" d="M21.3504 20.6494C20.7004 21.4394 19.5704 21.9094 18.0604 21.9094H5.94039C4.43039 21.9094 3.30039 21.4394 2.65039 20.6494L12.0004 14.1094L21.3504 20.6494Z" fill="white"/>
<path opacity="0.4" d="M21.35 20.6498L12 14.1098V3.08984C13.18 3.08984 14.35 3.89984 15.24 5.49984L18.18 10.7898L21.3 16.3998C22.25 18.1098 22.2 19.6398 21.35 20.6498Z" fill="white"/>
</svg>
